HIERARCHY
ROOT Hips
{
	OFFSET 0.00000 0.00000 0.00000
	CHANNELS 6 Xposition Yposition Zposition Zrotation Yrotation Xrotation 
	JOINT LHipJoint
	{
		OFFSET 0 0 0
		CHANNELS 3 Zrotation Yrotation Xrotation
		JOINT LeftHip
		{
			OFFSET 1.85742 -1.74412 1.01653
			CHANNELS 3 Zrotation Yrotation Xrotation
			JOINT LeftKnee
			{
				OFFSET 2.54803 -7.00067 0.00000
				CHANNELS 3 Zrotation Yrotation Xrotation
				JOINT LeftAnkle
				{
					OFFSET 2.51202 -6.90173 0.00000
					CHANNELS 3 Zrotation Yrotation Xrotation
					JOINT LeftToe
					{
						OFFSET 0.17547 -0.48209 1.64281
						CHANNELS 3 Zrotation Yrotation Xrotation
						End Site
						{
							OFFSET 0.00000 -0.00000 0.86587
						}
					}
				}
			}
		}
	}
	JOINT RHipJoint
	{
		OFFSET 0 0 0
		CHANNELS 3 Zrotation Yrotation Xrotation
		JOINT RightHip
		{
			OFFSET -1.95533 -1.74413 1.01654
			CHANNELS 3 Zrotation Yrotation Xrotation
			JOINT RightKnee
			{
				OFFSET -2.49465 -6.85400 0.00000
				CHANNELS 3 Zrotation Yrotation Xrotation
				JOINT RightAnkle
				{
					OFFSET -2.54783 -7.00010 0.00000
					CHANNELS 3 Zrotation Yrotation Xrotation
					JOINT RightToe
					{
						OFFSET -0.18513 -0.50864 1.69288
						CHANNELS 3 Zrotation Yrotation Xrotation
						End Site
						{
							OFFSET -0.00000 -0.00000 0.89242
						}
					}
				}
			}
		}
	}
	JOINT lowerback
	{
		OFFSET 0 0 0
		CHANNELS 3 Zrotation Yrotation Xrotation
		JOINT Chest
		{
			OFFSET 0.02173 2.16290 -0.15998
			CHANNELS 3 Zrotation Yrotation Xrotation
			JOINT Chest2
			{
				OFFSET 0.00940 2.17323 -0.00467
				CHANNELS 3 Zrotation Yrotation Xrotation
				JOINT lowerneck
				{
					OFFSET 0 0 0
					CHANNELS 3 Zrotation Yrotation Xrotation
					JOINT Neck
					{
						OFFSET 0.01475 1.85823 0.31113
						CHANNELS 3 Zrotation Yrotation Xrotation
						JOINT Head
						{
							OFFSET 0.01902 1.88783 -0.37187
							CHANNELS 3 Zrotation Yrotation Xrotation
							End Site
							{
								OFFSET 0.00489 1.93211 -0.16169
							}
						}
					}
				}
				JOINT LeftCollar
				{
					OFFSET 0 0 0
					CHANNELS 3 Zrotation Yrotation Xrotation
					JOINT LeftShoulder
					{
						OFFSET 3.34199 1.32384 -0.07862
CHANNELS 3 Zrotation Xrotation Yrotation
						JOINT LeftElbow
						{
OFFSET 0 -5.279500 0.000000
CHANNELS 3 Zrotation Xrotation Yrotation
							JOINT LeftWrist
							{
OFFSET 0 -3.535040 0.000000
CHANNELS 3 Zrotation Xrotation Yrotation
								JOINT lhand
								{
									OFFSET 0 0 0
CHANNELS 3 Zrotation Xrotation Yrotation
									JOINT LFingers
									{
OFFSET 0 -0.667950 0.000000
CHANNELS 3 Zrotation Xrotation Yrotation
										End Site
										{
OFFSET 0 -0.538520 0.000000
										}
									}
								}
								JOINT LThumb
								{
OFFSET 0 0.000000 0.000000
CHANNELS 3 Zrotation Xrotation Yrotation
									End Site
									{
OFFSET 0 -0.546740 0.546740
									}
								}
							}
						}
					}
				}
				JOINT RightCollar
				{
					OFFSET 0 0 0
					CHANNELS 3 Zrotation Yrotation Xrotation
					JOINT RightShoulder
					{
						OFFSET -3.16149 1.45719 -0.50507
CHANNELS 3 Zrotation Xrotation Yrotation
						JOINT RightElbow
						{
OFFSET 0 -5.250350 0.000000
CHANNELS 3 Zrotation Xrotation Yrotation
							JOINT RightWrist
							{
OFFSET 0 -3.588840 0.000000
CHANNELS 3 Zrotation Xrotation Yrotation
								JOINT rhand
								{
									OFFSET 0 0 0
CHANNELS 3 Zrotation Xrotation Yrotation
									JOINT RFingers
									{
OFFSET 0 -0.779240 0.000000
CHANNELS 3 Zrotation Xrotation Yrotation
										End Site
										{
OFFSET 0 -0.628240 0.000000
										}
									}
								}
								JOINT RThumb
								{
OFFSET 0 0.000000 0.000000
CHANNELS 3 Zrotation Xrotation Yrotation
									End Site
									{
OFFSET 0 -0.637830 0.637830
									}
								}
							}
						}
					}
				}
			}
		}
	}
}
MOTION
Frames: 6
Frame Time: 0.008333333333333333
4.960300 18.615000 -9.951900 -3.836900 11.339100 4.644500 0.000000 0.000000 0.000000 -12.842400 -18.297500 -10.416400 1.876500 8.604000 24.564100 0.844200 -1.261700 -16.981800 9.881400 -17.342600 -59.091200 0.000000 0.000000 0.000000 23.091400 -5.043500 0.070700 0.000000 -0.000000 0.000000 0.107400 -7.302700 -7.390100 -8.742400 16.639100 -55.194900 3.585600 2.131900 1.183000 0.244600 2.934500 -1.656800 -1.840900 1.407500 -2.198600 3.447100 2.941300 -23.963800 1.015900 2.583000 26.438300 0.281400 1.655500 12.861200 0.000000 0.000000 0.000000 7.985200 5.378800 -35.224300 19.872300 -30.488200 5.466400 37.458100 0.300600 -57.125700 0.000000 0.000000 0.000000 -7.125000 0.000000 0.000000 175.022500 2.909700 -4.736600 0.000000 0.000000 0.000000 -7.658900 7.446700 40.890800 -32.989000 -43.321600 -13.414500 -21.622000 -19.279500 -11.353800 0.000000 0.000000 0.000000 7.125000 0.000000 -0.000000 3.861300 17.808000 2.501100
4.932145 18.611570 -9.967315 -3.833945 11.692915 4.483436 0.000000 0.000000 0.000000 -12.793886 -18.671100 -10.234188 1.876609 8.604138 24.564577 0.832846 -1.213643 -16.876941 9.878771 -17.341097 -59.082315 0.000000 0.000000 0.000000 23.178485 -5.443042 0.118157 0.000000 0.000000 0.000000 0.097644 -7.205042 -7.543677 -8.650950 16.577671 -54.874898 3.586114 2.108110 1.221316 0.214654 2.905410 -1.721197 -1.874493 1.390296 -2.286690 3.458817 2.853001 -23.869018 1.068964 2.441102 26.652025 0.275949 1.604866 12.927185 0.000000 0.000000 0.000000 7.624677 5.322466 -35.611116 20.825489 -31.623588 5.958432 35.708550 0.040464 -56.654764 0.000000 0.000000 0.000000 -7.125000 0.000000 0.000000 174.643381 1.971370 -5.192115 0.000000 0.000000 0.000000 -7.527973 7.318672 39.933154 -31.902661 -42.469121 -12.675107 -19.692434 -16.550783 -12.386352 0.000000 0.000000 0.000000 7.125000 0.000000 0.000000 5.238162 16.884572 3.505756
4.907302 18.610792 -9.980588 -3.903258 11.905395 4.305582 0.000000 0.000000 0.000000 -12.693855 -19.088523 -9.978514 1.879276 8.609935 24.582529 0.832071 -1.070869 -16.908289 9.809858 -17.301471 -58.850955 0.000000 0.000000 0.000000 23.308067 -5.715303 0.239339 0.000000 0.000000 0.000000 0.083106 -7.092812 -7.828899 -8.386609 16.396386 -53.943565 3.615134 2.134731 1.254314 0.215071 2.944208 -1.762799 -1.893748 1.407565 -2.344480 3.278608 2.744751 -23.862552 1.442987 2.238697 26.831182 0.417091 1.553155 12.989527 0.000000 0.000000 0.000000 7.655072 5.026928 -36.572652 21.762350 -32.706664 6.457303 35.059933 -0.506493 -56.111944 0.000000 0.000000 0.000000 -7.125000 0.000000 0.000000 174.622766 1.289177 -5.278401 0.000000 0.000000 0.000000 -7.589117 7.311585 39.161958 -31.141660 -41.851460 -12.164479 -17.278498 -13.295450 -12.952372 0.000000 0.000000 0.000000 7.125000 0.000000 0.000000 6.918783 16.501062 4.707986
4.885077 18.606883 -9.997256 -3.979148 12.159265 4.106060 0.000000 0.000000 0.000000 -12.528799 -18.640682 -10.095979 1.879537 8.610511 24.584444 0.823149 -1.659957 -16.662987 9.858560 -17.329421 -59.014299 0.000000 0.000000 0.000000 23.461534 -6.003998 0.286855 0.000000 0.000000 0.000000 0.079225 -7.030118 -7.840541 -8.364282 16.380736 -53.864417 3.661357 2.170798 1.357480 0.177497 2.998668 -1.819377 -1.965428 1.430653 -2.453497 3.314288 2.683101 -23.819637 1.585616 2.093584 26.948624 0.441688 1.515817 13.027324 0.000000 0.000000 0.000000 7.674100 4.785916 -37.410687 22.602109 -33.650287 6.916768 34.254977 -1.183572 -55.745143 0.000000 0.000000 0.000000 -7.125000 0.000000 0.000000 174.481487 0.725429 -5.473777 0.000000 0.000000 0.000000 -7.457249 7.430061 38.563043 -30.505604 -41.322553 -11.742196 -15.663489 -11.612103 -13.299558 0.000000 0.000000 0.000000 7.125000 0.000000 0.000000 8.036080 16.274595 5.517479
4.866807 18.602066 -10.009642 -4.025884 12.357351 3.929421 0.000000 0.000000 0.000000 -12.439212 -18.367130 -10.102817 1.872010 8.594252 24.534021 0.818597 -2.000427 -16.534625 9.938828 -17.375287 -59.283626 0.000000 0.000000 0.000000 23.563148 -6.243820 0.354732 0.000000 0.000000 0.000000 0.078096 -7.010049 -7.839808 -8.373162 16.386955 -53.895812 3.574742 2.161126 1.381050 0.242725 2.986431 -1.830643 -1.851322 1.426007 -2.486763 3.277764 2.684618 -23.587362 1.557671 2.132393 26.807612 0.438373 1.523731 12.922558 0.000000 0.000000 0.000000 7.425474 4.701637 -37.946441 23.337215 -34.455187 7.328253 33.751180 -1.858004 -54.947089 0.000000 0.000000 0.000000 -7.125000 0.000000 0.000000 5.425613 -0.671703 174.613971 0.000000 0.000000 0.000000 -7.611755 7.708415 38.676669 -30.082690 -40.964114 -11.463778 -15.686217 -11.864921 -13.765479 0.000000 0.000000 0.000000 7.125000 0.000000 0.000000 8.022634 15.795979 5.591608
4.852931 18.601035 -10.025478 -3.923924 12.534523 3.793305 0.000000 0.000000 0.000000 -12.564065 -18.410877 -9.997409 1.871152 8.592334 24.528137 0.803653 -1.964096 -16.386612 9.939287 -17.375542 -59.285342 0.000000 0.000000 0.000000 23.487279 -6.472882 0.422576 0.000000 0.000000 0.000000 0.073344 -6.958401 -7.901308 -8.396715 16.403432 -53.979295 3.485159 2.141948 1.420828 0.179588 2.957704 -1.797940 -1.866270 1.413335 -2.477955 3.308586 2.711344 -23.751405 1.556118 2.150752 26.956255 0.440598 1.536587 13.017233 0.000000 0.000000 0.000000 7.357277 4.602045 -38.565975 23.803121 -34.955416 7.593488 33.701145 -1.902045 -54.541980 0.000000 0.000000 0.000000 -7.125000 0.000000 0.000000 5.311523 -1.043602 174.763348 0.000000 0.000000 0.000000 -7.757046 8.270889 38.857142 -30.147017 -41.019082 -11.505972 -16.104657 -11.563464 -12.150051 0.000000 0.000000 0.000000 7.125000 0.000000 0.000000 7.729642 17.419067 5.108235
